<?xml version="1.0" encoding="UTF-8" standalone="no"?>
<!-- Created with Inkscape (http://www.inkscape.org/) -->

<svg
   xmlns:dc="http://purl.org/dc/elements/1.1/"
   xmlns:cc="http://creativecommons.org/ns#"
   xmlns:rdf="http://www.w3.org/1999/02/22-rdf-syntax-ns#"
   xmlns:svg="http://www.w3.org/2000/svg"
   xmlns="http://www.w3.org/2000/svg"
   xmlns:sodipodi="http://sodipodi.sourceforge.net/DTD/sodipodi-0.dtd"
   xmlns:inkscape="http://www.inkscape.org/namespaces/inkscape"
   width="12.522595mm"
   height="13.14208mm"
   viewBox="0 0 12.522595 13.14208"
   version="1.1"
   id="svg8"
   inkscape:version="0.92.2 (5c3e80d, 2017-08-06)"
   sodipodi:docname="logo.svg">
  <defs
     id="defs2" />
  <sodipodi:namedview
     id="base"
     pagecolor="#ffffff"
     bordercolor="#666666"
     borderopacity="1.0"
     inkscape:pageopacity="0.0"
     inkscape:pageshadow="2"
     inkscape:zoom="0.5"
     inkscape:cx="4.91909"
     inkscape:cy="18.496995"
     inkscape:document-units="mm"
     inkscape:current-layer="layer1"
     showgrid="false"
     inkscape:pagecheckerboard="false"
     fit-margin-top="0"
     fit-margin-left="0"
     fit-margin-right="0"
     fit-margin-bottom="0"
     inkscape:window-width="1366"
     inkscape:window-height="705"
     inkscape:window-x="-8"
     inkscape:window-y="-8"
     inkscape:window-maximized="1" />
  <metadata
     id="metadata5">
    <rdf:RDF>
      <cc:Work
         rdf:about="">
        <dc:format>image/svg+xml</dc:format>
        <dc:type
           rdf:resource="http://purl.org/dc/dcmitype/StillImage" />
        <dc:title></dc:title>
      </cc:Work>
    </rdf:RDF>
  </metadata>
  <g
     inkscape:label="Layer 1"
     inkscape:groupmode="layer"
     id="layer1"
     transform="translate(-86.818758,-56.040184)">
    <path
       style="fill:#fe7c00;stroke-width:0.26458335"
       d="m 89.111953,68.914777 c -1.689536,-0.379609 -2.440149,-1.008356 -2.269502,-1.901037 0.06885,-0.360143 0.289888,-0.654806 0.491205,-0.654806 0.257438,0 0.36603,-0.353315 0.36603,-1.190919 0,-1.045152 0.131739,-1.318767 1.07631,-2.235442 1.186897,-1.151844 2.74194,-1.583688 3.989541,-1.107917 1.388181,0.529379 2.183385,-1.067193 1.275281,-2.560449 -0.633433,-1.041597 -0.727137,-3.224023 -0.138426,-3.224023 0.210029,0 0.55242,0.243491 0.760867,0.541091 0.319071,0.455538 0.403798,0.476455 0.535865,0.132291 0.08628,-0.224839 0.266743,-0.408799 0.40103,-0.408799 0.325318,0 1.095366,1.9568 1.095366,2.78348 0,0.474332 0.143082,0.656104 0.516455,0.656104 0.481673,0 2.129378,2.001309 2.129378,2.586352 0,0.352805 -0.848355,1.048214 -1.411035,1.156645 -0.386771,0.07453 -0.500391,0.382704 -0.561023,1.521667 -0.06049,1.136223 -0.204745,1.529055 -0.705631,1.921503 l -0.629603,0.493297 0.728967,0.548954 c 1.391843,1.048137 -0.213792,1.475313 -1.818208,0.48373 -0.993194,-0.613828 -2.013761,-0.485826 -1.894315,0.237589 0.05952,0.360504 -0.173147,0.450847 -1.249777,0.485273 -0.727604,0.02326 -1.937553,-0.0958 -2.688775,-0.264584 z"
       id="path3710"
       inkscape:connector-curvature="0" />
  </g>
</svg>
